# xmcd
#
# Track frame offsets:
#	150
#	24064
#	41209
#	75704
#	91934
#	112899
#	138337
#	159552
#	191272
#	209197
#	224527
#	242529
#
# Disc length: 3443 seconds
#
# Revision: 1
# Processed by: cddbd v1.5.1PL0 Copyright (c) Steve Scherf et al.
# Submitted via: CDex 1.50Beta5
#
DISCID=9d0d710c
DTITLE=さまざまなアーティスト - billy joel
DYEAR=1900
DGENRE=Other
TTITLE0=the stranger
TTITLE1=just the way you are
TTITLE2=scens from an ltalian restaurant
TTITLE3=vienna
TTITLE4=eveybody has a dream
TTITLE5=piano man
TTITLE6=say goodbye to hollywood
TTITLE7=captain jack
TTITLE8=only the good die young
TTITLE9=she's always a woman
TTITLE10=get it right the first time
TTITLE11=movin'out
EXTD=
EXTT0=
EXTT1=
EXTT2=
EXTT3=
EXTT4=
EXTT5=
EXTT6=
EXTT7=
EXTT8=
EXTT9=
EXTT10=
EXTT11=
PLAYORDER=
